<svg width="45" height="45" viewBox="0 0 45 45" fill="none" xmlns="http://www.w3.org/2000/svg">
<path d="M20.3906 10.5469C20.3906 9.37793 21.3311 8.4375 22.5 8.4375C23.6689 8.4375 24.6094 9.37793 24.6094 10.5469V21.375L32.1064 26.3672C33.0732 27.0176 33.3369 28.3271 32.6162 29.2939C32.0449 30.2607 30.7354 30.5244 29.7686 29.8037L21.3311 24.1787C20.7422 23.8623 20.3906 23.2031 20.3906 22.4209V10.5469ZM22.5 0C34.9277 0 45 10.0723 45 22.5C45 34.9277 34.9277 45 22.5 45C10.0723 45 0 34.9277 0 22.5C0 10.0723 10.0723 0 22.5 0ZM4.21875 22.5C4.21875 32.5986 12.4014 40.7812 22.5 40.7812C32.5986 40.7812 40.7812 32.5986 40.7812 22.5C40.7812 12.4014 32.5986 4.21875 22.5 4.21875C12.4014 4.21875 4.21875 12.4014 4.21875 22.5Z" fill="#7828DC"/>
</svg>
