<?xml version="1.0" standalone="yes"?>
<svg xmlns="http://www.w3.org/2000/svg" width="1606" height="400">
<path style="fill:#ffffff; stroke:none;" d="M0 0L0 145C3.18436 143.592 6.39894 140.523 10 140.442C25.264 140.099 19.4661 169.897 20.0895 179C20.5856 186.244 24.2593 198.319 20.821 204.985C17.2935 211.823 8.26696 212.51 4.08951 205.895C0.888111 200.826 1.25197 191.868 1 186L0 186L0 400L1606 400L1606 205L1605 205C1601.53 228.16 1573.32 236.108 1554 227.895C1547.58 225.168 1533.79 212.697 1538.12 204.329C1541.29 198.183 1555.8 192.595 1562 190C1562.51 194.04 1562.62 199.385 1566.23 201.99C1569.63 204.443 1577.51 203.803 1575.28 197.988C1573.2 192.562 1566.41 188.937 1562 185.627C1551.1 177.455 1540.06 168.005 1541.09 153C1542.55 131.842 1567.54 120.839 1586 127.955C1593.99 131.034 1600.58 138.93 1605 146L1579 159C1577.17 154.437 1574.87 152.709 1570 154C1578.84 170.682 1603.06 172.914 1605 195L1606 195L1606 0L252 0C253.443 3.50674 256.307 7.00833 255.303 11C253.696 17.3941 246.538 22.2039 242.428 27C233.618 37.2832 225.501 48.1741 218.861 60C215.166 66.5805 212.053 78.2161 204.985 81.8202C198.748 85.0002 191.743 79.6649 191.797 73C191.864 64.7715 199.304 54.8965 203.284 48C207.06 41.4572 211.367 35.0466 215.895 29C223.56 18.7645 233.709 10.3509 241 0L0 0z"/>
<path style="fill:#8e2ee5; stroke:none;" d="M241 1.02777C234.708 4.17389 229.198 11.6961 224.754 17C213.137 30.8653 203.276 45.7867 195.248 62C191.251 70.0706 190.113 88.0872 204.985 82.2577C211.686 79.6308 214.576 68.872 217.769 63C224.205 51.1655 232.117 40.308 240.754 30C245.248 24.6356 252.354 19.5965 254.99 13C258.571 4.03818 249.195 -3.06995 241 1.02777M297 43.7423C288.12 47.0455 274.904 60.9717 272.032 70C269.445 78.1342 276.957 85.352 284.996 82.2577C292.175 79.4943 307.524 63.2171 310.092 56C312.934 48.0134 304.62 40.9078 297 43.7423M249.001 44.7462C237.769 48.9185 225.039 74.8098 222.53 86C220.715 94.0951 227.572 101.641 235.957 98.2577C240.504 96.423 242.138 91.047 244.108 87C248.807 77.3454 258.962 67.1846 261.569 57C263.503 49.4472 256.885 41.8172 249.001 44.7462z"/>
<path style="fill:#7828dc; stroke:none;" d="M596 62L596 117L625 139L625 96C625 91.5531 626.551 83.4478 623.972 79.6096C619.227 72.5477 603.65 65.5757 596 62z"/>
<path style="fill:#8e2ee5; stroke:none;" d="M321 68.7384C313.798 71.4006 307.478 79.221 302.805 85C290.398 100.343 282.147 117.539 278.614 137C277.084 145.43 272.488 171.908 288.996 167.562C299.33 164.842 296.867 145.32 298.898 137C302.071 124.003 307.964 111.366 316.465 101C321.67 94.6526 330.136 89.3946 333.821 82C338.072 73.4697 329.362 65.6473 321 68.7384z"/>
<path style="fill:#7828dc; stroke:none;" d="M484 76.6528C462.854 83.285 474.327 116.74 496 110.2C518.428 103.432 506.673 69.5414 484 76.6528z"/>
<path style="fill:#6423d3; stroke:none;" d="M970 80.4822C946.768 84.2961 952.74 119.721 976 115.671C998.081 111.826 992.116 76.8517 970 80.4822M912 86C901.544 92.4224 883.048 99.39 883 113L873 113L873 141L883 141C883 169.936 872.808 229.783 917 229.999C923.685 230.032 929.497 229.486 936 228L936 202C930.143 201.952 921.651 202.135 917.225 197.772C912.415 193.031 913 186.188 913 180L913 141L933 141L933 113L913 113L912 86M1046 89C1036.43 95.3356 1017.15 102.199 1017 115L1007 115L1007 144L1017 144C1017 165.567 1011.03 198.016 1023.09 216.999C1030.69 228.946 1042.44 233.064 1056 232.999C1060.02 232.98 1067.32 233.218 1069.97 229.487C1073.65 224.31 1071 210.237 1071 204C1065.72 204 1058.67 205.225 1054.02 202.258C1047.6 198.164 1047.01 190.885 1047 184L1047 144L1068 144L1068 115L1047 115L1046 89z"/>
<path style="fill:#8e2ee5; stroke:none;" d="M347 92.6559C334.117 96.4581 322.169 113.902 317.966 126C315.341 133.555 319.773 142.99 328.996 140.562C337.529 138.317 342.829 122.262 349.09 116.17C352.637 112.718 357.312 109.857 359.103 105C361.909 97.3861 354.486 90.4464 347 92.6559M254.019 108.028C245.991 112.188 244.974 127.075 243.87 135C240.172 161.539 242.474 188.992 252.604 214C256.053 222.513 264.008 246.21 276.981 239.681C288.945 233.66 276.372 216.608 272.781 209C263.98 190.355 260.207 168.543 262.17 148C263.153 137.714 268.527 126.16 267.852 116C267.411 109.372 260.118 104.867 254.019 108.028M44.0046 108.746C35.8184 111.815 36.1725 123.749 36 131C35.4981 152.094 34.1278 172.932 36.7153 194C37.7552 202.468 38.774 218.471 51.9807 213.397C60.5897 210.089 57.0993 197.801 56.2855 191C53.3448 166.425 58.2195 142.282 56.8557 118C56.4984 111.638 50.4596 106.326 44.0046 108.746M79.0154 108.667C67.3261 112.125 64.7318 150.551 82.9954 145.566C94.7334 142.362 96.2933 103.557 79.0154 108.667M114.015 108.668C106.687 110.804 106.504 118.742 105.834 125C104.063 141.539 102.318 159.379 104.285 176C105.241 184.076 107.283 193.566 117.985 190.566C125.671 188.412 124.153 180.061 124.015 174C123.591 155.489 127.922 135.144 125.891 117.001C125.251 111.283 119.819 106.976 114.015 108.668M184.004 108.757C175.769 111.726 175.708 122.784 174.845 130C172.33 151.02 172.332 172.064 175.754 193C177.079 201.105 178.515 217.87 190.985 214.181C200.554 211.351 197.335 201.108 196.084 194C193.253 177.906 191.97 161.351 193.09 145C193.683 136.327 196.116 127.699 195.995 119C195.906 112.674 191.171 106.173 184.004 108.757M220.001 108.613C208.488 111.354 206.868 139.453 208.189 149C209 154.862 213.97 158.992 219.999 157.413C223.293 156.55 225.879 154.153 227.106 150.995C229.977 143.611 233.223 123.756 231.591 116.015C230.517 110.92 225.132 107.391 220.001 108.613z"/>
<path style="fill:#7828dc; stroke:none;" d="M596 221L596 225L625 225C625 207.652 626.774 189.223 624.714 172C623.459 161.506 620.609 151.838 614.64 143C579.719 91.2908 501.576 139.627 525.015 195C528.037 202.141 533.059 208.701 539.001 213.674C545.566 219.17 553.597 222.927 562 224.539C574.249 226.89 584.272 224.2 596 221M712 158C705.024 158 695.198 156.217 689.015 160.009C680.932 164.968 678.427 180.022 688.015 184.972C692.597 187.337 699.979 186 705 186L745 186C745 168.983 745.487 153.226 734.471 139C714.192 112.811 670.191 115.837 652.105 143C628.649 178.228 653.578 225.948 696 226C709.463 226.016 722.571 222.592 733 213.699C735.493 211.573 740.793 207.763 740.793 204.093C740.793 199.545 723.258 188.602 719 188.606C713.514 188.613 707.695 195.033 702 196.32C687.999 199.484 671.24 185.902 673.34 171C676.163 150.977 698.316 145.028 712 158M476 122L476 226L505 226L505 122L476 122M765 122L765 225L795 225L795 122L765 122z"/>
<path style="fill:#6423d3; stroke:none;" d="M806 151C817.347 148.989 823.478 156.427 825.384 167C828.693 185.352 826 206.357 826 225L856 225C856 200.18 862.036 165.824 850.623 143C844.571 130.896 832.493 123.035 819 122.09C815.833 121.868 809.303 120.93 807.028 123.742C803.087 128.613 806 144.827 806 151z"/>
<path style="fill:#7828dc; stroke:none;" d="M804 123L804 151L806 151L806 123L804 123z"/>
<path style="fill:#8e2ee5; stroke:none;" d="M362 126.627C353.677 127.966 349.01 138.736 347.239 146C343.03 163.265 348.161 181.24 362 192.671C366.844 196.672 374.398 201.39 380.985 199.566C386.684 197.987 388.923 191.111 386.424 186.043C381.681 176.425 369.005 175.343 366.255 163C363.779 151.89 374.509 144.205 372.768 134.004C371.914 129.005 366.956 125.829 362 126.627z"/>
<path style="fill:#4b1cc8; stroke:none;" d="M1251 127L1251 159C1257.27 156.441 1263.15 153.966 1270 155.939C1284.32 160.062 1292.28 177.472 1283.36 190C1272.41 205.378 1251.19 203.648 1243.36 186C1236.36 170.21 1241 145.03 1241 128L1212 128L1212 289L1241 289L1241 225C1248 228.69 1255.15 229.997 1263 230C1282.64 230.008 1300.11 221.552 1310.12 204C1326.32 175.602 1311.2 135.759 1279 127.478C1270.11 125.192 1259.99 125.332 1251 127M1405 225L1405 229L1434 229L1434 127L1406 127L1406 166C1406 172.423 1407.08 179.968 1404.47 186C1396.87 203.527 1376.26 206.075 1364.21 191.996C1352.99 178.879 1361.45 159.656 1377 155.044C1383.3 153.175 1388.88 155.598 1395 157L1395 127C1385.84 125.299 1375.99 125.333 1367 127.91C1359.53 130.051 1352.72 133.813 1347 139.093C1304.5 178.353 1352.42 252.707 1405 225M1478 190C1474.05 191.138 1470.57 192.964 1467 195.001C1463.17 197.186 1456.42 199.532 1454.03 203.39C1449.28 211.057 1460.96 223.906 1467 227.004C1488.47 238.014 1520.68 227.675 1521.9 201C1522.19 194.62 1520.41 187.413 1517.05 182.001C1509.44 169.773 1494.24 165.461 1486 154C1490.73 153.224 1492.62 155.023 1495 159L1521 146C1509.68 120.609 1462.7 117.09 1457.33 149C1454.83 163.804 1462.65 174.997 1474 183.525C1479.1 187.355 1488.18 191.691 1490.53 197.988C1492.39 202.946 1486.35 204.032 1483.11 201.975C1479.06 199.403 1478.56 194.342 1478 190M1562 190C1558 191.153 1554.6 193.095 1551 195.15C1547.18 197.33 1540.42 199.668 1538.04 203.529C1533.14 211.479 1545.79 224.484 1552 227.457C1573.98 237.971 1606.85 226.622 1605.96 199C1605.74 192.27 1603.63 185.533 1599.78 180.004C1592.13 169.009 1578.19 164.523 1570 154C1574.73 153.224 1576.62 155.023 1579 159L1605 146C1593.75 119.436 1546.04 117.923 1541.3 150C1539.07 165.098 1547.62 175.586 1559 184.127C1564.12 187.971 1571.74 191.989 1574.7 197.91C1577.23 202.959 1570.36 204.04 1567.11 201.975C1563.01 199.371 1562.81 194.322 1562 190z"/>
<path style="fill:#6423d3; stroke:none;" d="M958 127L958 231L987 231L987 127L958 127M1087 128L1096.74 150L1119 197L1121 197C1125.9 188.609 1136.26 172.829 1136.22 163C1136.2 157.032 1130.55 149.409 1128.14 144C1126.19 139.637 1123.46 130.638 1118.79 128.603C1110.72 125.092 1095.79 128 1087 128M1101 266C1108.65 266 1125.09 269.128 1131.61 264.972C1140.29 259.434 1145.28 238.104 1149.76 229C1166.05 195.827 1182.8 162.117 1197 128C1189.01 128 1170.13 124.485 1163.5 129.028C1160.22 131.277 1158.52 137.488 1157 141C1153.36 149.407 1149.24 157.602 1145.58 166C1136.04 187.843 1125.49 209.269 1115.69 231C1110.73 242.018 1103.12 254.063 1101 266z"/>
<path style="fill:#8e2ee5; stroke:none;" d="M146.004 132.587C137.578 134.811 139 144.259 139 151C139 167.426 138.746 183.78 141.804 200C143.162 207.205 145.423 216.255 154.996 214.186C162.222 212.624 162.41 204.991 161.83 199C160.862 188.989 158.481 179.076 158.039 169C157.627 159.591 159.472 149.27 157.772 140.001C156.77 134.541 151.41 131.16 146.004 132.587M7.00077 140.742C-0.689182 143.503 0 150.25 0 157C0 172.009 -1.08397 188.32 2.53318 202.996C3.98617 208.891 10.075 212.556 15.9846 210.257C21.205 208.226 22.2261 203.005 21.9097 198C20.9263 182.441 23.1041 163.024 19.6057 148.004C18.3112 142.446 12.5928 138.735 7.00077 140.742M319.015 144.743C307.254 149.322 312.43 175.156 326.957 168.99C338.48 164.099 333.109 139.256 319.015 144.743M386.044 147.742C374.706 152.334 381.431 174.081 393.995 169.257C405.932 164.674 399.388 142.338 386.044 147.742z"/>
<path style="fill:#ffffff; stroke:none;" d="M566 151.532C537.631 158.291 550.517 202.253 579 195.468C607.953 188.57 594.782 144.676 566 151.532z"/>
<path style="fill:#8e2ee5; stroke:none;" d="M75.044 159.742C69.2038 162.112 70.0003 168.833 70 174C69.9993 184.227 68.3399 220.836 86.956 213.258C92.368 211.055 92.1745 204.927 91.9606 200C91.5259 189.983 91.9408 174.317 88.3966 165.015C86.4562 159.923 79.9597 157.748 75.044 159.742M214.019 165.742C202.324 170.383 208.486 207.917 223.995 202.103C236.654 197.357 230.997 159.005 214.019 165.742M287.001 170.587C272.957 174.268 280.881 205.615 294.999 202.236C309.523 198.76 300.869 166.953 287.001 170.587M322.015 172.573C313.26 175.118 315.442 184.705 318.015 191C322.515 202.011 340.116 229.931 354.981 224.106C360.114 222.094 362.056 215.971 359.99 211.039C357.839 205.904 351.819 202.896 348.09 198.985C341.013 191.564 334.658 168.9 322.015 172.573M297.044 204.028C290.697 207.41 291.552 214.788 294.711 220C300.162 228.994 318.009 255.376 330.956 248.542C335.796 245.988 337.245 239.798 334.821 235.004C332.711 230.831 328.274 228.156 325.015 224.961C318.338 218.415 309.002 197.655 297.044 204.028M223.044 207.742C212.55 212.014 220.719 227.399 223.694 234C232.526 253.589 244.775 271.773 260.001 286.999C265.305 292.303 273.524 301.996 281.956 297.542C287.775 294.469 288.207 286.956 284.566 282.004C276.226 270.66 264.553 261.683 256.155 250C247.799 238.375 243.334 225.544 236.865 213.015C234.21 207.875 228.651 205.46 223.044 207.742M282.044 240.742C276.6 242.959 275.893 250.275 278.318 255C282.349 262.854 296.004 277.204 305.981 273.258C311.201 271.193 313.03 264.874 310.681 260C306.845 252.041 291.806 236.768 282.044 240.742M213.004 260.576C204.666 262.884 205.214 271.9 208.761 278C215.697 289.931 225.401 301.174 235.039 310.985C239.424 315.449 245.319 319.948 251.981 317.397C257.883 315.136 258.932 307.955 255.991 303C248.374 290.168 234.644 277.967 225.251 266.015C222.175 262.102 218.218 259.133 213.004 260.576z"/>
<path style="fill:#4b1cc8; stroke:none;" d="M1219 331L1219 384C1228.87 384 1242.83 386.5 1252 382.347C1264.54 376.669 1261.16 361.468 1251 356C1260.06 351.185 1260.89 337.361 1251 332.573C1242.39 328.409 1228.38 331 1219 331M1326 331L1326 384L1335 384L1335 364C1342.83 364 1351.99 365.268 1358.91 360.775C1366.97 355.538 1367.46 340.515 1359.9 334.649C1351.44 328.089 1336.05 331 1326 331M1507 331L1507 384C1510.64 384 1515.1 385.217 1516 381C1544.34 402.601 1555.56 341.171 1525 345.188C1521.59 345.636 1518.86 347.205 1516 349L1516 331L1507 331M1551 331L1551 384L1560 384L1560 331L1551 331z"/>
<path style="fill:#ffffff; stroke:none;" d="M1228 339L1228 353C1233.37 353 1239.93 353.863 1244.89 351.347C1249.72 348.9 1249.69 342.849 1244.94 340.318C1240.23 337.803 1233.17 339 1228 339M1335 340L1335 356C1340.35 356 1347.1 356.843 1351.87 353.86C1356.47 350.979 1356.74 343.984 1351.87 341.179C1347.43 338.626 1339.95 340 1335 340z"/>
<path style="fill:#4b1cc8; stroke:none;" d="M1381 350L1381 346L1372 346L1372 384L1381 384C1381 370.594 1377.9 353.829 1396 353L1396 345L1381 350M1407 368L1433 368C1433 360.556 1433.18 353.534 1426.96 348.279C1417.08 339.938 1400.53 346.715 1398.33 359C1395.55 374.508 1403.74 386.245 1420 384.907C1423.45 384.623 1434.54 381.553 1431.25 376.152C1428.23 371.198 1422 377.037 1418 377.216C1412.07 377.481 1409.3 372.626 1407 368M1449 350L1449 346L1440 346L1440 384L1449 384C1449 377.07 1446.73 365.258 1450.03 359.043C1451.91 355.497 1457.73 351.602 1461.49 354.758C1467.13 359.499 1464 377.254 1464 384L1473 384C1473 377.07 1470.73 365.258 1474.03 359.043C1475.91 355.497 1481.73 351.602 1485.49 354.758C1491.13 359.499 1488 377.254 1488 384L1497 384C1497 370.862 1502.75 338.831 1480 345.649C1477.07 346.527 1474.52 348.337 1472 350C1467.4 341.241 1455.11 345 1449 350M1263 346C1267.41 357.368 1275.57 370.869 1277 382.999C1277.89 390.52 1270.4 391.269 1265 390C1259.97 402.008 1276.94 401.387 1282.61 394.891C1291.81 384.344 1298.78 359.588 1302 346L1292 346C1290.21 353.543 1287.42 365.4 1282 371C1280.08 358.15 1276.83 346 1263 346M1566 346C1570.41 357.368 1578.57 370.869 1580 382.999C1580.89 390.52 1573.4 391.269 1568 390C1562.97 402.008 1579.94 401.387 1585.61 394.891C1594.81 384.344 1601.78 359.589 1605 346L1595 346C1593.21 353.543 1590.42 365.4 1585 371C1583.08 358.15 1579.83 346 1566 346z"/>
<path style="fill:#ffffff; stroke:none;" d="M1408 361L1424 361C1422.53 350.131 1410.09 350.661 1408 361M1522 353.746C1511.25 357.78 1514.67 381.779 1527.91 376.812C1538.16 372.963 1534.63 349.009 1522 353.746M1228 361L1228 376C1233.8 376 1242.64 377.58 1247.61 373.91C1252.12 370.569 1250.5 364.677 1245.96 362.318C1240.95 359.717 1233.47 361 1228 361z"/>
</svg>
