<svg width="343" height="110" viewBox="0 0 343 110" fill="none" xmlns="http://www.w3.org/2000/svg">
<path d="M34.0742 22.9883C29.6484 24.3633 25.7383 27.8437 23.7188 32.1406L22.5586 34.5898V55V75.4102L23.9336 78.2461C25.6094 81.6836 28.7031 84.6914 32.1406 86.2812C34.5039 87.3984 34.8906 87.4414 43.3125 87.5703L51.9922 87.6992L51.9062 72.9609L51.7773 58.2227L45.4609 58.0937C39.2305 58.0078 39.1445 57.9648 38.2852 56.8477C37.168 55.4297 37.168 54.5703 38.2852 53.1523C39.1445 52.0352 39.2305 51.9922 45.4609 51.9062L51.7773 51.7773L51.9062 37.0391L51.9922 22.3437L43.957 22.3867C38.543 22.3867 35.2773 22.6016 34.0742 22.9883Z" fill="#6C3CE4"/>
<path d="M58.0938 37.0391L58.2227 51.7773L72.1016 51.9062C81.4258 51.9492 86.2383 51.8633 86.8398 51.5195C87.6562 51.0898 87.6992 50.7461 87.5703 42.8398C87.4414 34.8047 87.3984 34.5039 86.1953 31.9258C84.6914 28.6602 81.3398 25.3516 77.9023 23.7187C75.4961 22.6016 75.1094 22.5586 66.6875 22.4297L58.0078 22.3008L58.0938 37.0391Z" fill="#6C3CE4"/>
<path d="M58.2656 58.3086C58.1367 58.4805 58.0078 65.1406 58.0078 73.1328L58.0508 87.6992L66.7305 87.5703C75.1953 87.4414 75.4531 87.3984 78.0312 86.2383C81.3398 84.6914 84.6484 81.3828 86.2383 77.9883C87.3984 75.4961 87.4414 75.1523 87.5703 67.2461C87.6992 59.8984 87.6562 59.0391 86.9688 58.5664C86.3672 58.1367 82.9297 58.0078 72.4023 58.0078C64.7969 58.0078 58.4375 58.1367 58.2656 58.3086Z" fill="#6C3CE4"/>
<path d="M98.776 55.248C98.776 51.984 99.528 49.056 101.032 46.464C102.568 43.872 104.632 41.856 107.224 40.416C109.848 38.944 112.712 38.208 115.816 38.208C119.368 38.208 122.52 39.088 125.272 40.848C128.056 42.576 130.072 45.04 131.32 48.24H124.744C123.88 46.48 122.68 45.168 121.144 44.304C119.608 43.44 117.832 43.008 115.816 43.008C113.608 43.008 111.64 43.504 109.912 44.496C108.184 45.488 106.824 46.912 105.832 48.768C104.872 50.624 104.392 52.784 104.392 55.248C104.392 57.712 104.872 59.872 105.832 61.728C106.824 63.584 108.184 65.024 109.912 66.048C111.64 67.04 113.608 67.536 115.816 67.536C117.832 67.536 119.608 67.104 121.144 66.24C122.68 65.376 123.88 64.064 124.744 62.304H131.32C130.072 65.504 128.056 67.968 125.272 69.696C122.52 71.424 119.368 72.288 115.816 72.288C112.68 72.288 109.816 71.568 107.224 70.128C104.632 68.656 102.568 66.624 101.032 64.032C99.528 61.44 98.776 58.512 98.776 55.248ZM143.197 49.392C143.997 48.048 145.053 47.008 146.365 46.272C147.709 45.504 149.293 45.12 151.117 45.12V50.784H149.725C147.581 50.784 145.949 51.328 144.829 52.416C143.741 53.504 143.197 55.392 143.197 58.08V72H137.725V45.552H143.197V49.392ZM167.619 72.432C165.123 72.432 162.867 71.872 160.851 70.752C158.835 69.6 157.251 68 156.099 65.952C154.947 63.872 154.371 61.472 154.371 58.752C154.371 56.064 154.963 53.68 156.147 51.6C157.331 49.52 158.947 47.92 160.995 46.8C163.043 45.68 165.331 45.12 167.859 45.12C170.387 45.12 172.675 45.68 174.723 46.8C176.771 47.92 178.387 49.52 179.571 51.6C180.755 53.68 181.347 56.064 181.347 58.752C181.347 61.44 180.739 63.824 179.523 65.904C178.307 67.984 176.643 69.6 174.531 70.752C172.451 71.872 170.147 72.432 167.619 72.432ZM167.619 67.68C169.027 67.68 170.339 67.344 171.555 66.672C172.803 66 173.811 64.992 174.579 63.648C175.347 62.304 175.731 60.672 175.731 58.752C175.731 56.832 175.363 55.216 174.627 53.904C173.891 52.56 172.915 51.552 171.699 50.88C170.483 50.208 169.171 49.872 167.763 49.872C166.355 49.872 165.043 50.208 163.827 50.88C162.643 51.552 161.699 52.56 160.995 53.904C160.291 55.216 159.939 56.832 159.939 58.752C159.939 61.6 160.659 63.808 162.099 65.376C163.571 66.912 165.411 67.68 167.619 67.68ZM222.276 45.552L214.068 72H208.308L202.98 52.464L197.652 72H191.892L183.636 45.552H189.204L194.724 66.816L200.34 45.552H206.052L211.428 66.72L216.9 45.552H222.276ZM224.542 58.656C224.542 56 225.086 53.648 226.174 51.6C227.294 49.552 228.798 47.968 230.686 46.848C232.606 45.696 234.734 45.12 237.07 45.12C238.798 45.12 240.494 45.504 242.158 46.272C243.854 47.008 245.198 48 246.19 49.248V36.48H251.71V72H246.19V68.016C245.294 69.296 244.046 70.352 242.446 71.184C240.878 72.016 239.07 72.432 237.022 72.432C234.718 72.432 232.606 71.856 230.686 70.704C228.798 69.52 227.294 67.888 226.174 65.808C225.086 63.696 224.542 61.312 224.542 58.656ZM246.19 58.752C246.19 56.928 245.806 55.344 245.038 54C244.302 52.656 243.326 51.632 242.11 50.928C240.894 50.224 239.582 49.872 238.174 49.872C236.766 49.872 235.454 50.224 234.238 50.928C233.022 51.6 232.03 52.608 231.262 53.952C230.526 55.264 230.158 56.832 230.158 58.656C230.158 60.48 230.526 62.08 231.262 63.456C232.03 64.832 233.022 65.888 234.238 66.624C235.486 67.328 236.798 67.68 238.174 67.68C239.582 67.68 240.894 67.328 242.11 66.624C243.326 65.92 244.302 64.896 245.038 63.552C245.806 62.176 246.19 60.576 246.19 58.752ZM264.369 49.488C265.297 48.208 266.561 47.168 268.161 46.368C269.793 45.536 271.601 45.12 273.585 45.12C275.921 45.12 278.033 45.68 279.921 46.8C281.809 47.92 283.297 49.52 284.385 51.6C285.473 53.648 286.017 56 286.017 58.656C286.017 61.312 285.473 63.696 284.385 65.808C283.297 67.888 281.793 69.52 279.873 70.704C277.985 71.856 275.889 72.432 273.585 72.432C271.537 72.432 269.713 72.032 268.113 71.232C266.545 70.432 265.297 69.408 264.369 68.16V72H258.897V36.48H264.369V49.488ZM280.449 58.656C280.449 56.832 280.065 55.264 279.297 53.952C278.561 52.608 277.569 51.6 276.321 50.928C275.105 50.224 273.793 49.872 272.385 49.872C271.009 49.872 269.697 50.224 268.449 50.928C267.233 51.632 266.241 52.656 265.473 54C264.737 55.344 264.369 56.928 264.369 58.752C264.369 60.576 264.737 62.176 265.473 63.552C266.241 64.896 267.233 65.92 268.449 66.624C269.697 67.328 271.009 67.68 272.385 67.68C273.793 67.68 275.105 67.328 276.321 66.624C277.569 65.888 278.561 64.832 279.297 63.456C280.065 62.08 280.449 60.48 280.449 58.656ZM315.38 45.552V72H309.908V68.88C309.044 69.968 307.908 70.832 306.5 71.472C305.124 72.08 303.652 72.384 302.084 72.384C300.004 72.384 298.132 71.952 296.468 71.088C294.836 70.224 293.54 68.944 292.58 67.248C291.652 65.552 291.188 63.504 291.188 61.104V45.552H296.612V60.288C296.612 62.656 297.204 64.48 298.388 65.76C299.572 67.008 301.188 67.632 303.236 67.632C305.284 67.632 306.9 67.008 308.084 65.76C309.3 64.48 309.908 62.656 309.908 60.288V45.552H315.38ZM333.928 58.608L342.472 72H336.28L330.568 63.024L325.192 72H319.48L328.024 58.992L319.48 45.552H325.672L331.384 54.528L336.76 45.552H342.472L333.928 58.608Z" fill="black"/>
</svg>
