<?xml version="1.0" standalone="yes"?>
<svg xmlns="http://www.w3.org/2000/svg" width="462" height="140">
<path style="fill:#010101; stroke:none;" d="M0 0L0 40L1 40C3.6943 30.9289 11.2374 26.6943 19 22.2809C31.742 15.0365 44.4569 6.63847 58 1L39 0L0 0z"/>
<path style="fill:#0ba14b; stroke:none;" d="M16 23L16 25C31.2356 33.1105 48.3565 42.6908 61.8302 53.4884C68.3549 58.7171 80.1655 69.5449 89 69.5733C100.754 69.6111 117.685 54.4329 128 49C127.312 43.5589 127.06 37.5123 123.581 33.0154C119.473 27.7065 112.718 24.5408 107 21.2809C93.7972 13.7541 76.0577 -2.23512 60 0.212967C44.5545 2.56772 30.22 16.8725 16 23z"/>
<path style="fill:#010101; stroke:none;" d="M70 0L70 1C83.5939 6.68965 96.3073 15.5553 109 23.0108C115.125 26.6086 122.22 30.2853 125.427 37C130.61 47.8476 127 64.2684 127 76C127 85.7902 129.196 98.5346 123.197 106.985C118.847 113.113 111.343 116.113 105 119.719C93.5441 126.232 82.165 133.908 70 139L70 140L462 140L462 94C440.577 99.0253 462.962 61.2099 442.999 61.2099C421.167 61.2099 443.02 93.9257 422 94L424 52C428.511 52.8675 431.196 53.0012 432 58C442.875 52.9239 455.838 48.8186 461 64L462 64L462 0L70 0z"/>
<path style="fill:#fdb515; stroke:none;" d="M0 91L46 66.2801L63 54C51.5829 46.3042 39.6613 39.364 28 32.0502C24.2592 29.704 18.6906 24.5018 14 25.2477C7.38448 26.2997 1.93533 33.9176 0.529321 40C-3.06259 55.5386 0 75.0515 0 91z"/>
<path style="fill:#a1ad2a; stroke:none;" d="M17 25L18 26L17 25M20 27L21 28L20 27M22 28L23 29L22 28M23 29L24 30L23 29M25 30L26 31L25 30M28 32L29 33L28 32M30 33L31 34L30 33M31 34L32 35L31 34M33 35L34 36L33 35M36 37L37 38L36 37M38 38L39 39L38 38M41 40L42 41L41 40z"/>
<path style="fill:#0ba14b; stroke:none;" d="M151 57C151 64.7054 148.197 79.3588 152.742 85.8912C157.777 93.1274 170.926 91.8231 170 82C155.741 81.6551 160.993 66.8656 161 57C168.323 56.9741 169.974 55.3232 170 48L161 48L161 40C156.887 41.9179 140.346 55.1311 151 57z"/>
<path style="fill:#a1ad2a; stroke:none;" d="M43 41L44 42L43 41M44 42L45 43L44 42M46 43L47 44L46 43M49 45L50 46L49 45M51 46L52 47L51 46M52 47L53 48L52 47M54 48L55 49L54 48z"/>
<path style="fill:#0ba14b; stroke:none;" d="M212 86C208.489 73.6487 190.741 88.116 184 74C191.108 74.0047 208.413 78.7132 214.258 73.9722C218.83 70.2633 213.866 58.6338 211.061 55.1852C204.362 46.9489 191.733 46.2275 183.004 51.3634C171.056 58.3929 169.734 78.0801 181.015 86.3619C190.8 93.5446 202.067 91.0763 212 86z"/>
<path style="fill:#a1ad2a; stroke:none;" d="M126 49L127 50L126 49z"/>
<path style="fill:#fdb515; stroke:none;" d="M127 49L64 84L64 86C75.5465 93.0681 87.3915 99.6354 99 106.6C103.088 109.053 109.026 114.309 114 114.188C119.927 114.042 124.601 107.063 126.061 102C129.354 90.5795 126.995 75.8282 127 64C127.002 59.2958 128.695 53.3424 127 49z"/>
<path style="fill:#0ba14b; stroke:none;" d="M231 91C231 83.3219 229.331 72.7935 233.738 66.0154C239.695 56.8557 246.999 61.9276 247 49L232 55C231.68 50.8949 226.877 45.7457 223.028 50.6034C218.65 56.1271 222.385 73.0685 221.91 80C221.723 82.7394 220.155 86.9687 222.032 89.3966C223.855 91.7553 228.401 90.998 231 91z"/>
<path style="fill:#a1ad2a; stroke:none;" d="M57 50L58 51L57 50z"/>
<path style="fill:#0ba14b; stroke:none;" d="M253 50L252.985 79L253.042 89.5517L262 91C262 83.5334 260.501 73.6167 264.738 67.0046C270.29 58.3424 277.991 61.8258 278 50C271.631 50.057 267.754 51.7362 263 56L263 50L253 50M285 61C294.027 58.9356 304.15 55.7157 308 67C302.788 66.0324 297.296 65.5151 292 66.1852C281.971 67.4543 274.818 79.3778 282.419 87.7755C289.037 95.0869 300.912 92.9838 308 88L308 92L317 92C317.483 80.7471 322.276 61.6772 311.945 53.4298C304.981 47.8699 278.429 47.2847 285 61z"/>
<path style="fill:#a1ad2a; stroke:none;" d="M59 51L60 52L59 51M123 51L124 52L123 51z"/>
<path style="fill:#0ba14b; stroke:none;" d="M356 89C353.327 105.83 338.987 100.409 328 97C319.218 112.766 350.793 112.481 358.906 106.348C371.69 96.6825 366 66.1036 366 52C361.49 51.4704 357.916 50.7268 357 56C353.579 53.4441 350.355 51.4655 346 51.0941C308.049 47.8583 323.862 110.876 356 89z"/>
<path style="fill:#a1ad2a; stroke:none;" d="M60 52L61 53L60 52M121 52L122 53L121 52z"/>
<path style="fill:#0ba14b; stroke:none;" d="M387 52.5324C359.776 59.0181 373.257 99.6422 400 93.4707C414.764 90.0634 421.605 70.931 411.606 59.0934C405.777 52.1914 395.505 50.5063 387 52.5324M424 52L422 94C442.893 93.9839 421.844 66.606 441 61.696C455.46 57.9898 451.686 81.4456 452.019 88.9954C452.204 93.1869 456.014 97.4314 460.397 93.9722C463.83 91.2625 462 80.9309 462 77C462 57.4358 450.731 45.6593 432 58C431.572 52.5153 428.962 52.354 424 52z"/>
<path style="fill:#a1ad2a; stroke:none;" d="M62 53L63 54L62 53M119 53L120 54L119 53M63.3333 54.6667L63.6667 55.3333L63.3333 54.6667M118 54L119 55L118 54M116 55L117 56L116 55z"/>
<path style="fill:#010101; stroke:none;" d="M40 69L40 71C47.3454 74.1652 55.0362 82.1025 63 83.1481C69.8073 84.0419 83.0209 74.3261 88 70L64 56.6929L40 69z"/>
<path style="fill:#a1ad2a; stroke:none;" d="M114 56L115 57L114 56M112 57L113 58L112 57z"/>
<path style="fill:#010101; stroke:none;" d="M183 66L205 67C203.492 53.5014 187.598 55.6401 183 66z"/>
<path style="fill:#a1ad2a; stroke:none;" d="M111 58L112 59L111 58M109 59L110 60L109 59M107 60L108 61L107 60z"/>
<path style="fill:#010101; stroke:none;" d="M340.015 60.7423C326.052 66.2463 335.608 89.0692 349.957 83.2577C362.94 77.9995 354.664 54.9686 340.015 60.7423M392 60.5725C376.059 63.7185 380.838 87.6947 397 84.7716C411.766 82.1012 407.165 57.5797 392 60.5725z"/>
<path style="fill:#a1ad2a; stroke:none;" d="M105 61L106 62L105 61M104 62L105 63L104 62M102 63L103 64L102 63M100 64L101 65L100 64M98 65L99 66L98 65M97 66L98 67L97 66M95 67L96 68L95 67M93 68L94 69L93 68M91 69L92 70L91 69z"/>
<path style="fill:#ef3d51; stroke:none;" d="M113 116L113 114C97.622 106.812 80.9177 96.9818 67.0895 87.1111C59.4788 81.6785 48.6125 71.6296 39 70.4954C34.0067 69.9062 29.0603 74.2191 25 76.5756C15.1718 82.2797 -5.42724 88.3543 1.57253 103C4.43663 108.993 10.5498 112.328 16 115.6C28.5231 123.119 43.608 136.497 58 139.61C76.7416 143.662 97.0068 123.467 113 116z"/>
<path style="fill:#a1ad2a; stroke:none;" d="M88 70L88 71L91 71L88 70z"/>
<path style="fill:#010101; stroke:none;" d="M308 74C305.33 73.5044 302.723 73.0644 300 73.0154C298.362 72.986 296.627 72.9344 295.015 73.2785C280.506 76.3772 300.504 94.0186 306.991 79.8997C307.857 78.0142 307.895 76.0248 308 74M0 100L0 140L57 140L57 139C38.193 131.128 11.7577 116.653 0 100z"/>
</svg>
